<svg xmlns="http://www.w3.org/2000/svg" viewBox="0 0 96.713 77.957">
  <defs>
    <style>
      .cls-1 {
        fill: #bcc4d0;
        fill-rule: evenodd;
      }
    </style>
  </defs>
  <g id="Group_1819" data-name="Group 1819" transform="translate(0.018)">
    <path id="Path_1972" data-name="Path 1972" class="cls-1" d="M19.8,7.1l6.6-.5L34,39.1a11.23,11.23,0,0,0,9.8,9.1h8.9s7,.2,10-9.3L70.2,6.4l6.7.5L72.8,71.2l-9.6.5L59.6,59.3s-1-5.2-7.8-5.4H44.9s-6,.1-7.3,5.6L33.7,71.7l-9.4-.3L19.8,7.1Z"/>
    <path id="Path_1973" data-name="Path 1973" class="cls-1" d="M36.6,0C-7.2,0-.9,17.1,2.2,52,4.1,73,14.4,78.6,34.1,77.9H62.7c19.7.7,29.9-5,31.8-26C97.6,17.1,103.8,0,60,0Zm.5,74.7h0c-18,0-29-1.5-30.4-23.1C5.4,23.3-2.3,4.2,30.1,3.7H66.6C98.9,4.2,91.3,23.2,90,51.5,88.7,73.1,77.7,74.6,59.6,74.6l-22.5.1Z"/>
  </g>
</svg>
