<svg id="Group_1820" data-name="Group 1820" xmlns="http://www.w3.org/2000/svg" viewBox="0 0 107 70.6">
  <defs>
    <style>
      .cls-1 {
        fill: #bcc4d0;
        fill-rule: evenodd;
      }
    </style>
  </defs>
  <path id="Path_1974" data-name="Path 1974" class="cls-1" d="M107,33l-.4-2.3-.6-2.2-.7-2.2-1-2.1-2-3.4-2.6-3.3-3.1-3.1-3.5-2.8L89.1,9,84.8,6.7l-4.7-2L75.1,3,70,1.7l-.9-.2L64.7.7,59.4.1,59.2,0H53.4L48,.1l-.4.1L42.5.8l-5.4.9L31.8,3,26.9,4.7l-4.7,2L17.8,9l-3.9,2.6-3.6,2.8-3,3.1L4.7,20.8l-2,3.4-.9,2.1L1,28.5.4,30.7.1,33,0,35.2l.1,2.3.3,2.3L1,42l.8,2.2.9,2,2,3.5L7.3,53l3,3.1,3.6,2.8,3.9,2.6,4.4,2.4,4.7,1.9,4.9,1.7,5,1.3,5,.9,5.1.6h.5l4.6.3h1.2l3.9-.1h.4l1.6-.1,3.1-.3,5.1-.7,1.5-.4,3.5-.7,2.5-.7,2.6-.8,4.1-1.6,3.9-1.9,3.8-2.1,3.6-2.4,3.5-2.6,3.2-3.1,2.6-3.3,2-3.5,1-2,.7-2.2.6-2.2.4-2.3.1-2.3L107,33ZM57.8,5.3h0l1.6.1,1.8.2,3.2.4,3.3.5,1.4.3,1.8.4,3.2.8,2.7.8,2,.8,1.5.9,1.3,1.1,1,1.4.7,1.5.3,1.6-.1,1.4L83,18.7l-.8,1.1-1.2,1-2.3,1.3-2.5,1.1-2.5,1-2.6.9-2,.6-.7.2-2.6.6-.3-2.3-.4-2.4-.6-2.3-.8-2.2L62.9,15l-1-2.1-1-1.7L60.1,10l-.8-1-.2-.2L58,7.7l-.4-.3L57,6.8l-1.2-.9-1.3-.8,3.3.2Zm-4.3,8.8h.8l1.2.5,1,.7.8,1,.6.9.2.5.9,1.7.5,1.2.3.6.6,1.8.5,1.9.3,1.9-1.9.2-.9.1h-.7l-1.7.2-2.4.1h-.1l-2.4-.1-2.5-.1-1-.1L46.1,27l.3-1.9.5-1.9.6-2,.2-.3.6-1.4.9-1.8.8-1.5.8-1,1.1-.7,1.2-.4h.4Zm-29.6.7.5-1.4.8-1.2,1.3-1.1L28.3,10,31,8.8l2.9-1.2,3.1-1,3.3-.8,3.2-.4,2.3-.1,1.8-.1h5.1L51.5,6l-1.1.8-1.2,1L48.1,9l-.5.6-.6.6-1,1.6-1.1,1.9-1.1,2.4-.9,2.5L42.2,21l-.6,2.5-.4,2.6-2.4-.3-2.4-.4-2.3-.7L31.8,24l-2.2-1-1.8-1-1.4-1-1.1-1-.8-1.2-.6-1.3-.2-1.4.2-1.3ZM47.6,65.5l-2-.2-3.4-.5L38.8,64l-3.4-1-3.2-1.1L29,60.5l-3.8-1.9-3.7-2.3L18,53.5l-2.8-2.9-2.1-2.9-1.7-3L10,41.5l-.8-2.6-.6-2.6-.3-2.7V30.9l.2-2.3L9,26.4l.8-2.2,1.1-2,1.4-1.9,1.6-1.7.4,1.8L15,22l.9,1.6L17,25l1.3,1.2,1.4,1,2.5,1.7,2.9,1.5,3.1,1.3,3.9,1.2L36.5,34l3.9.8-.1,3.5.2,3.5.4,3.4.5,3.2.7,3.2.9,3.1,1.2,3,1.5,2.9,1.6,2.6.4.5,1.5,1.9-1.6-.1Zm9.9-13.2-.9,1.3-1.1.9-1.3.5H53l-1.2-.3-1-.6-.9-.9-.8-1.4-1-2.2-.5-1.4-.5-1.4-.9-3.1-.6-3.2-.2-3.3-.1-1.7,2.3.3.5.1,2.7.3,2.7.1h2.6l1.7-.1,1.1-.1.5-.1,2.2-.2-.1,1.5-.3,3-.6,3.4-1,3.3-.3.7L58.5,50l-.7,1.6-.3.7Zm41.3-17-.2,2.1-.4,2.1-.6,2-.8,1.9-1.4,2.8-1.7,2.5L91.9,51l-2.3,2.1-2.8,2.2-3.4,2.3-3.8,2.1-3.9,1.9-3.5,1.3-3.1,1-.4.1-3.6.9-3.6.7-2.2.3-1.5.2,1.5-2,.1-.3,1.5-2.3L62.2,59l1-2.8.9-2.9.8-2.9.6-2.9.5-2.9.4-3,.2-3.2.1-3.2,2.5-.8.3-.1,2.8-.8,2.7-.9,2.5-.9,2.7-.9,2.5-1.2,2.4-1.5,2.2-1.7,2-2,1.5-1.9,1.3-2,1-2.2,1.6,2L96,22.4l1.2,2.2.9,2.4.6,2,.3,2.1.2,2.1-.4,2.1Z"/>
  <path id="Path_1975" data-name="Path 1975" class="cls-1" d="M107,33l-.4-2.3-.6-2.2-.7-2.2-1-2.1-2-3.4-2.6-3.3-3.1-3.1-3.5-2.8L89.1,9,84.8,6.7l-4.7-2L75.1,3,70,1.7l-.9-.2L64.7.7,59.4.1,59.2,0H53.4L48,.1l-.4.1L42.5.8l-5.4.9L31.8,3,26.9,4.7l-4.7,2L17.8,9l-3.9,2.6-3.6,2.8-3,3.1L4.7,20.8l-2,3.4-.9,2.1L1,28.5.4,30.7.1,33,0,35.2l.1,2.3.3,2.3L1,42l.8,2.2.9,2,2,3.5L7.3,53l3,3.1,3.6,2.8,3.9,2.6,4.4,2.4,4.7,1.9,4.9,1.7,5,1.3,5,.9,5.1.6h.5l4.6.3h1.2l3.9-.1h.4l1.6-.1,3.1-.3,5.1-.7,1.5-.4,3.5-.7,2.5-.7,2.6-.8,4.1-1.6,3.9-1.9,3.8-2.1,3.6-2.4,3.5-2.6,3.2-3.1,2.6-3.3,2-3.5,1-2,.7-2.2.6-2.2.4-2.3.1-2.3L107,33ZM57.8,5.3h0l1.6.1,1.8.2,3.2.4,3.3.5,1.4.3,1.8.4,3.2.8,2.7.8,2,.8,1.5.9,1.3,1.1,1,1.4.7,1.5.3,1.6-.1,1.4L83,18.7l-.8,1.1-1.2,1-2.3,1.3-2.5,1.1-2.5,1-2.6.9-2,.6-.7.2-2.6.6-.3-2.3-.4-2.4-.6-2.3-.8-2.2L62.9,15l-1-2.1-1-1.7L60.1,10l-.8-1-.2-.2L58,7.7l-.4-.3L57,6.8l-1.2-.9-1.3-.8,3.3.2Zm-4.3,8.8h.8l1.2.5,1,.7.8,1,.6.9.2.5.9,1.7.5,1.2.3.6.6,1.8.5,1.9.3,1.9-1.9.2-.9.1h-.7l-1.7.2-2.4.1h-.1l-2.4-.1-2.5-.1-1-.1L46.1,27l.3-1.9.5-1.9.6-2,.2-.3.6-1.4.9-1.8.8-1.5.8-1,1.1-.7,1.2-.4h.4Zm-29.6.7.5-1.4.8-1.2,1.3-1.1L28.3,10,31,8.8l2.9-1.2,3.1-1,3.3-.8,3.2-.4,2.3-.1,1.8-.1h5.1L51.5,6l-1.1.8-1.2,1L48.1,9l-.5.6-.6.6-1,1.6-1.1,1.9-1.1,2.4-.9,2.5L42.2,21l-.6,2.5-.4,2.6-2.4-.3-2.4-.4-2.3-.7L31.8,24l-2.2-1-1.8-1-1.4-1-1.1-1-.8-1.2-.6-1.3-.2-1.4.2-1.3ZM47.6,65.5l-2-.2-3.4-.5L38.8,64l-3.4-1-3.2-1.1L29,60.5l-3.8-1.9-3.7-2.3L18,53.5l-2.8-2.9-2.1-2.9-1.7-3L10,41.5l-.8-2.6-.6-2.6-.3-2.7V30.9l.2-2.3L9,26.4l.8-2.2,1.1-2,1.4-1.9,1.6-1.7.4,1.8L15,22l.9,1.6L17,25l1.3,1.2,1.4,1,2.5,1.7,2.9,1.5,3.1,1.3,3.9,1.2L36.5,34l3.9.8-.1,3.5.2,3.5.4,3.4.5,3.2.7,3.2.9,3.1,1.2,3,1.5,2.9,1.6,2.6.4.5,1.5,1.9-1.6-.1Zm9.9-13.2-.9,1.3-1.1.9-1.3.5H53l-1.2-.3-1-.6-.9-.9-.8-1.4-1-2.2-.5-1.4-.5-1.4-.9-3.1-.6-3.2-.2-3.3-.1-1.7,2.3.3.5.1,2.7.3,2.7.1h2.6l1.7-.1,1.1-.1.5-.1,2.2-.2-.1,1.5-.3,3-.6,3.4-1,3.3-.3.7L58.5,50l-.7,1.6-.3.7Zm41.3-17-.2,2.1-.4,2.1-.6,2-.8,1.9-1.4,2.8-1.7,2.5L91.9,51l-2.3,2.1-2.8,2.2-3.4,2.3-3.8,2.1-3.9,1.9-3.5,1.3-3.1,1-.4.1-3.6.9-3.6.7-2.2.3-1.5.2,1.5-2,.1-.3,1.5-2.3L62.2,59l1-2.8.9-2.9.8-2.9.6-2.9.5-2.9.4-3,.2-3.2.1-3.2,2.5-.8.3-.1,2.8-.8,2.7-.9,2.5-.9,2.7-.9,2.5-1.2,2.4-1.5,2.2-1.7,2-2,1.5-1.9,1.3-2,1-2.2,1.6,2L96,22.4l1.2,2.2.9,2.4.6,2,.3,2.1.2,2.1-.4,2.1Z"/>
</svg>
