<svg xmlns="http://www.w3.org/2000/svg" viewBox="0 0 109.6 78.7">
  <defs>
    <style>
      .cls-1 {
        fill: #bcc4d0;
        fill-rule: evenodd;
      }
    </style>
  </defs>
  <path id="Path_1970" data-name="Path 1970" class="cls-1" d="M54.8,78.7C72.9,78.7,89,72.4,99,62.6H90c-8.5,7.1-20.9,11.6-35,11.6-26.3,0-46.8-15.7-46.8-35,0-22.3,20.5-35,46.8-35,1.7,0,3,.8,2,2.2C51.5,13,36,34.1,33.2,38.7c-5.6,9-5.5,20.1,8.2,20.9H99c2.9,0,3.7-1.4,4.8-2.8a29.11,29.11,0,0,0,5.8-17.7c0-16.6-11.7-29-28.9-35.1h0L78,8h0c14.3,5.3,23.7,15.9,23.7,31.2a28.653,28.653,0,0,1-1.1,7.7c-.6,2.2-1.9,4-4.2,4h-46c-5.9,0-3.6-6.1-1.4-9,3.2-5.7,20.5-29.3,24.7-33.7,1.1-1.6,4-5-.1-6.2A87.389,87.389,0,0,0,54.8,0C24.5,0,0,15.5,0,39.4c0,24,24.5,39.3,54.8,39.3Z"/>
</svg>
