<svg xmlns="http://www.w3.org/2000/svg" viewBox="0 0 116 58">
  <defs>
    <style>
      .cls-1 {
        fill: #bcc4d0;
        fill-rule: evenodd;
      }
    </style>
  </defs>
  <path id="Path_1971" data-name="Path 1971" class="cls-1" d="M116,29c0,16-26,29-58,29S0,45,0,29,26,0,58,0s58,13,58,29ZM55.2,25a108.532,108.532,0,0,0,13.7-4c12.3-4.4,18.2-8.9,19.4-9.9,1.5-1.4.3-2-1-2.4C78.9,6.2,66.1,4.4,58,4.7c-5.9.2-9.3,6.5-10.6,9.3-6.2,13,4.9,11.6,7.8,11ZM17.4,43.2c.3-.5,10-23,21.5-35.2,1.3-1.4-.2-1.7-2-1.3C18,10.4,4.8,19,4.8,29c0,5.4,4,10.4,10.5,14.5a1.543,1.543,0,0,0,2.1-.3ZM60.7,33A86.084,86.084,0,0,0,47,37c-12.3,4.4-18.2,8.8-19.3,9.9-1.5,1.3-.3,2,1,2.4,8.4,2.5,21.1,4.3,29.3,4,5.9-.2,9.3-6.5,10.6-9.3,6.2-13-4.9-11.6-7.9-11Zm50.5-4c0-5.4-3.9-10.4-10.5-14.5a1.433,1.433,0,0,0-2.1.2c-.3.5-10,23-21.5,35.3-1.3,1.4.2,1.6,2,1.3C98,47.6,111.2,39,111.2,29Z"/>
</svg>
