<svg xmlns="http://www.w3.org/2000/svg" viewBox="0 0 275.55 36.2">
  <defs>
    <style>
      .cls-1 {
        fill: #fff;
      }
    </style>
  </defs>
  <path id="Path_1976" data-name="Path 1976" class="cls-1" d="M20.9.6C27,.6,32.05-1.6,35.35-5.65l-5.2-4.8a11.154,11.154,0,0,1-8.8,4.15,10.737,10.737,0,0,1-11.2-11.2,10.737,10.737,0,0,1,11.2-11.2,11.261,11.261,0,0,1,8.8,4.1l5.2-4.8c-3.3-4-8.35-6.2-14.4-6.2-10.9,0-19,7.55-19,18.1S10.05.6,20.9.6Zm30-27.9a20.678,20.678,0,0,0-11.6,3.25l2.8,5.45a12.934,12.934,0,0,1,7.75-2.5c4.2,0,6.2,1.95,6.2,5.3h-6.2c-8.2,0-11.55,3.3-11.55,8.05C38.3-3.1,42.05.4,48.35.4c3.95,0,6.75-1.3,8.2-3.75V0h7.3V-15.35C63.85-23.5,59.1-27.3,50.9-27.3ZM50.3-4.85c-2.75,0-4.4-1.3-4.4-3.25,0-1.8,1.15-3.15,4.8-3.15h5.35V-8.5A5.747,5.747,0,0,1,50.3-4.85Zm28.05-18.5V-26.9H70.9V0h7.8V-12.7c0-5.15,2.85-7.5,7.15-7.5.6,0,1.1.05,1.75.1v-7.2C83.45-27.3,80.25-25.95,78.35-23.35ZM101.4.4c8.05,0,12.7-3.55,12.7-8.55,0-10.6-16.25-6.15-16.25-10.75,0-1.4,1.5-2.5,5-2.5a15.448,15.448,0,0,1,7.75,2l2.6-5.55c-2.55-1.5-6.65-2.35-10.35-2.35C95-27.3,90.4-23.7,90.4-18.6c0,10.75,16.25,6.25,16.25,10.65,0,1.5-1.35,2.45-4.95,2.45a18.4,18.4,0,0,1-9.35-2.6l-2.6,5.6C92.25-.85,96.85.4,101.4.4Zm26.1-6.9v-8.1h16.25v-6.3H127.5v-7.6h18.4V-35H119.45V0h27.1V-6.5Zm43.9-20.4L163.7-8.6l-7.45-18.3H148.2L159.5,0h8.05L178.9-26.9Zm36.3,13.55c0-8.65-6.1-13.95-14-13.95-8.2,0-14.35,5.8-14.35,13.85,0,8,6.05,13.85,15.35,13.85,4.85,0,8.6-1.5,11.1-4.35l-4.15-4.5a9.119,9.119,0,0,1-6.75,2.6c-4.1,0-6.95-2.05-7.7-5.4h20.35C207.6-11.9,207.7-12.75,207.7-13.35ZM193.75-21.4a6.392,6.392,0,0,1,6.6,5.6H187.1A6.368,6.368,0,0,1,193.75-21.4Zm35.5-5.9a11.777,11.777,0,0,0-8.9,3.55V-26.9H212.9V0h7.8V-13.3c0-4.95,2.7-7.25,6.45-7.25,3.45,0,5.45,2,5.45,6.35V0h7.8V-15.4C240.4-23.6,235.6-27.3,229.25-27.3ZM262.7-6.8a5.257,5.257,0,0,1-3.15,1c-2.1,0-3.35-1.25-3.35-3.55V-20.3h6.7v-6h-6.7v-6.55h-7.8v6.55h-4.15v6h4.15V-9.25c0,6.4,3.7,9.65,10.05,9.65a11.147,11.147,0,0,0,6.35-1.7ZM272.65.4a4.773,4.773,0,0,0,4.85-4.9,4.661,4.661,0,0,0-4.85-4.8,4.661,4.661,0,0,0-4.85,4.8A4.773,4.773,0,0,0,272.65.4Z" transform="translate(-1.95 35.6)"/>
</svg>
