<svg xmlns="http://www.w3.org/2000/svg" viewBox="0 0 31.221 31.221">
  <defs>
    <style>
      .cls-1 {
        fill: #19a19b;
      }
    </style>
  </defs>
  <g id="paper-plane" transform="translate(0 0)">
    <g id="Group_29" data-name="Group 29" transform="translate(3.293 0)">
      <g id="Group_28" data-name="Group 28" transform="translate(0 0)">
        <path id="Path_16" data-name="Path 16" class="cls-1" d="M81.62.08a.61.61,0,0,0-.613,0L69.833,6.692a.61.61,0,1,0,.621,1.05L78.471,3,63.537,18.5,56.11,16.224,65.8,10.492a.61.61,0,0,0-.621-1.05L54.3,15.878a.61.61,0,0,0,.132,1.108L63.3,19.7l3.913,7.123a.145.145,0,0,0,.013.019.608.608,0,0,0,.948.123l4.5-4.4,8.464,2.59a.61.61,0,0,0,.788-.583V.61A.61.61,0,0,0,81.62.08Zm-14.372,20a.61.61,0,0,0-.108.347v3.73l-2.672-4.864L76.292,7.02Zm1.111,5.005V21.247l2.987.914ZM80.708,23.75,68.726,20.084l11.982-17.3Z" transform="translate(-53.999 0)"/>
      </g>
    </g>
    <g id="Group_31" data-name="Group 31" transform="translate(3.293 21.016)">
      <g id="Group_30" data-name="Group 30">
        <path id="Path_17" data-name="Path 17" class="cls-1" d="M60.733,344.827a.61.61,0,0,0-.862,0l-5.692,5.692a.61.61,0,0,0,.862.862l5.692-5.693A.61.61,0,0,0,60.733,344.827Z" transform="translate(-53.999 -344.648)"/>
      </g>
    </g>
    <g id="Group_33" data-name="Group 33" transform="translate(0 28.599)">
      <g id="Group_32" data-name="Group 32" transform="translate(0)">
        <path id="Path_18" data-name="Path 18" class="cls-1" d="M2.444,469.179a.61.61,0,0,0-.862,0l-1.4,1.4a.61.61,0,0,0,.862.862l1.4-1.4A.61.61,0,0,0,2.444,469.179Z" transform="translate(0 -469.001)"/>
      </g>
    </g>
    <g id="Group_35" data-name="Group 35" transform="translate(7.658 29.965)">
      <g id="Group_34" data-name="Group 34">
        <path id="Path_19" data-name="Path 19" class="cls-1" d="M126.621,491.589a.609.609,0,1,0,.179.431A.614.614,0,0,0,126.621,491.589Z" transform="translate(-125.58 -491.41)"/>
      </g>
    </g>
    <g id="Group_37" data-name="Group 37" transform="translate(9.18 25.428)">
      <g id="Group_36" data-name="Group 36">
        <path id="Path_20" data-name="Path 20" class="cls-1" d="M154.59,417.185a.61.61,0,0,0-.862,0l-3.015,3.015a.61.61,0,1,0,.862.862l3.015-3.015A.61.61,0,0,0,154.59,417.185Z" transform="translate(-150.534 -417.006)"/>
      </g>
    </g>
    <g id="Group_39" data-name="Group 39" transform="translate(19.578 25.197)">
      <g id="Group_38" data-name="Group 38">
        <path id="Path_21" data-name="Path 21" class="cls-1" d="M325.118,413.39a.61.61,0,0,0-.862,0l-3.023,3.023a.61.61,0,1,0,.862.862l3.023-3.023A.61.61,0,0,0,325.118,413.39Z" transform="translate(-321.053 -413.211)"/>
      </g>
    </g>
    <g id="Group_41" data-name="Group 41" transform="translate(16.247 8.133)">
      <g id="Group_40" data-name="Group 40">
        <path id="Path_22" data-name="Path 22" class="cls-1" d="M267.471,133.559a.609.609,0,1,0,.179.432A.614.614,0,0,0,267.471,133.559Z" transform="translate(-266.43 -133.38)"/>
      </g>
    </g>
  </g>
</svg>
