<svg xmlns="http://www.w3.org/2000/svg" viewBox="0 0 777.818 896.069">
  <defs>
    <style>
      .cls-1 {
        fill: #b0b2d1;
        opacity: 0.1;
      }
    </style>
  </defs>
  <path id="Path_14" data-name="Path 14" class="cls-1" d="M430.494,42.06c34.166-12.7,75.759-1.777,111.279,14.152,111.559,50.042,192.832,145.036,257.4,241.815,23.38,35.043,45.587,71.629,54.376,110.749,17.9,79.624-28.78,162.055-108.163,190.941-27,9.833-56.653,13.864-86.356,16.111-52.818,4-107.5,2.413-159.9-12.4-37.365-10.589-72.711-27.623-106.612-46.442C297.847,504.4,211.385,436.113,149.127,352.7c-27.305-36.586-50.405-77.832-51.071-120.045s26.844-84.632,72.106-91.81c18.713-2.965,38.507.121,57.818,3.3,28.432,4.682,57.251,9.606,85.358,7.564,29.038-2.125,66.8-13.471,72.1-41.193C391.041,80.749,396.373,54.745,430.494,42.06Z" transform="translate(841.392 86.842) rotate(107)"/>
</svg>
